<?xml version="1.0" encoding="UTF-8"?><svg id="a" xmlns="http://www.w3.org/2000/svg" viewBox="0 0 96 27.91"><defs><style>.b{fill:#fff;}</style></defs><path class="b" d="M18.87,27.44h-5v-9.08c0-2.45-1.99-4.44-4.44-4.44s-4.44,1.99-4.44,4.44v9.08H0v-9.08c0-5.2,4.23-9.44,9.44-9.44s9.44,4.23,9.44,9.44v9.08Z"/><path class="b" d="M26.45,27.44h-5V9.44C21.45,4.23,25.68,0,30.89,0V5c-2.45,0-4.44,1.99-4.44,4.44v.59c1.32-.71,2.83-1.11,4.44-1.11v5c-2.45,0-4.44,1.99-4.44,4.44v9.08Z"/><rect class="b" x="45.15" y="2.75" width="5" height="24.44"/><g><path class="b" d="M42.74,27.31c-5.2,0-9.44-4.23-9.44-9.44V3.12h5v14.75c0,2.45,1.99,4.44,4.44,4.44v5Z"/><rect class="b" x="36.68" y="8.44" width="6.06" height="5"/></g><g><path class="b" d="M66.56,27.44h-5v-9.08c0-2.75-1.29-4.44-1.99-4.44s-1.99,1.68-1.99,4.44v9.08h-5v-9.08c0-5.29,3.07-9.44,6.99-9.44s6.99,4.15,6.99,9.44v9.08Z"/><path class="b" d="M75.54,27.31h-5v-9.08c0-2.75-1.29-4.44-1.99-4.44s-1.99,1.68-1.99,4.44v9.08h-5v-9.08c0-5.29,3.07-9.44,6.99-9.44s6.99,4.14,6.99,9.44v9.08Z"/></g><path class="b" d="M86.56,27.91c-2.39,0-4.67-.89-6.43-2.53-1.84-1.72-2.91-4.05-3-6.57-.09-2.52,.81-4.92,2.53-6.76,1.72-1.84,4.05-2.91,6.57-3,2.49-.09,4.92,.81,6.76,2.53,1.84,1.72,2.91,4.05,2.99,6.57v2.83h-13.1c.18,.27,.4,.52,.64,.74,.87,.81,1.98,1.21,3.18,1.19,1.33-.05,2.55-.68,3.36-1.73l3.96,3.05c-1.72,2.24-4.33,3.58-7.16,3.68-.11,0-.23,0-.34,0Zm-3.66-11.93h7.33c-.18-.27-.4-.52-.64-.75-.87-.81-1.99-1.24-3.18-1.19-1.18,.04-2.28,.54-3.09,1.41-.15,.17-.3,.34-.42,.53Z"/></svg>